<svg width="14" height="10" viewBox="0 0 14 10" fill="none" xmlns="http://www.w3.org/2000/svg">
<path d="M12.6562 3.84375V2C12.6562 1.625 12.5625 1.29167 12.375 1C12.2083 0.6875 11.9688 0.447917 11.6562 0.28125C11.3646 0.09375 11.0312 0 10.6562 0H8C7.72917 0 7.47917 0.0520833 7.25 0.15625C7.02083 0.239583 6.82292 0.354167 6.65625 0.5C6.48958 0.354167 6.29167 0.239583 6.0625 0.15625C5.83333 0.0520833 5.58333 0 5.3125 0H2.65625C2.28125 0 1.9375 0.09375 1.625 0.28125C1.33333 0.447917 1.09375 0.6875 0.90625 1C0.739583 1.29167 0.65625 1.625 0.65625 2V3.84375C0.447917 4.03125 0.28125 4.25 0.15625 4.5C0.0520833 4.75 0 5.02083 0 5.3125V9.3125H1.3125V8H12V9.3125H13.3125V5.3125C13.3125 5.02083 13.25 4.75 13.125 4.5C13.0208 4.25 12.8646 4.03125 12.6562 3.84375ZM8 1.3125H10.6562C10.8438 1.3125 11 1.38542 11.125 1.53125C11.25 1.65625 11.3125 1.8125 11.3125 2V3.3125H7.3125V2C7.3125 1.8125 7.375 1.65625 7.5 1.53125C7.64583 1.38542 7.8125 1.3125 8 1.3125ZM2 2C2 1.8125 2.0625 1.65625 2.1875 1.53125C2.3125 1.38542 2.46875 1.3125 2.65625 1.3125H5.3125C5.5 1.3125 5.65625 1.38542 5.78125 1.53125C5.92708 1.65625 6 1.8125 6 2V3.3125H2V2ZM1.3125 6.65625V5.3125C1.3125 5.14583 1.375 5 1.5 4.875C1.64583 4.72917 1.8125 4.65625 2 4.65625H11.3125C11.5 4.65625 11.6562 4.72917 11.7812 4.875C11.9271 5 12 5.14583 12 5.3125V6.65625H1.3125Z" fill="#65665C"/>
</svg>
